<?xml version="1.0" standalone="no"?>
<!DOCTYPE svg PUBLIC "-//W3C//DTD SVG 20010904//EN"
 "http://www.w3.org/TR/2001/REC-SVG-20010904/DTD/svg10.dtd">
<svg version="1.0" xmlns="http://www.w3.org/2000/svg"
 width="500.000000pt" height="500.000000pt" viewBox="0 0 500.000000 500.000000"
 preserveAspectRatio="xMidYMid meet">

<g transform="translate(0.000000,500.000000) scale(0.100000,-0.100000)"
fill="#58CBFE" stroke="none">
<path d="M2215 4945 c-291 -38 -519 -106 -771 -230 -685 -337 -1176 -977
-1322 -1725 -37 -187 -47 -291 -46 -485 1 -402 82 -749 257 -1101 351 -711
1032 -1208 1812 -1325 495 -74 1008 6 1447 227 185 93 393 236 533 366 27 25
68 62 90 82 l40 36 -45 -20 c-36 -16 -67 -20 -162 -20 l-118 0 0 485 0 485
120 0 c130 0 169 -10 206 -51 43 -47 51 -100 58 -369 7 -282 -2 -402 -36 -460
l-20 -35 32 30 c18 17 69 75 113 130 373 463 551 1004 534 1620 -6 221 -27
374 -76 557 -77 291 -205 563 -374 797 -86 119 -250 304 -343 386 -43 38 -81
72 -84 75 -3 3 -32 26 -65 51 -234 177 -462 300 -705 382 -103 34 -191 58
-355 92 -163 35 -529 45 -720 20z m-367 -574 c49 -25 86 -62 115 -116 22 -39
22 -48 27 -610 5 -538 6 -572 24 -602 21 -35 89 -73 130 -73 38 0 98 27 118
53 10 12 18 16 18 9 0 -24 -39 -88 -77 -126 -155 -152 -408 -105 -502 94 l-26
55 -2 550 c-2 303 -5 560 -8 572 -13 57 -101 84 -153 47 l-23 -16 16 39 c27
64 90 120 165 144 40 13 133 3 178 -20z m1312 -2 c166 -54 267 -132 365 -280
25 -37 57 -102 72 -145 l28 -79 3 -598 3 -598 -24 -53 c-46 -100 -121 -150
-227 -149 -105 0 -185 48 -229 138 -23 47 -21 53 11 31 34 -24 82 -20 117 10
l31 26 0 579 c0 558 -1 582 -21 641 -53 159 -183 284 -346 333 -63 19 -214 19
-277 0 -105 -32 -218 -112 -272 -195 -39 -58 -41 -41 -4 28 82 154 258 288
422 321 29 6 62 13 73 15 46 11 212 -4 275 -25z m-274 -334 c97 -28 184 -106
209 -184 7 -24 7 -24 -30 4 -52 40 -127 46 -174 13 -19 -12 -44 -36 -55 -51
-20 -27 -21 -43 -27 -425 -5 -379 -6 -400 -28 -462 -75 -214 -239 -376 -445
-438 -66 -20 -103 -25 -196 -24 -101 0 -125 3 -201 29 -180 62 -338 206 -402
368 -4 11 5 4 19 -15 120 -155 260 -230 429 -230 216 0 416 144 487 352 8 21
14 173 17 433 l6 400 26 55 c69 145 221 218 365 175z m-1956 -2750 l0 -435 90
0 90 0 0 -50 0 -50 -150 0 -150 0 0 485 0 485 60 0 60 0 0 -435z m400 -50 l0
-485 -60 0 -60 0 0 485 0 485 60 0 60 0 0 -485z m808 353 c12 -73 27 -160 32
-193 17 -109 100 -610 104 -627 4 -16 -4 -18 -54 -18 l-57 0 -14 88 -14 87
-86 3 -86 3 -7 -68 c-10 -113 -10 -113 -72 -113 -66 0 -64 -19 -24 235 17 105
37 237 45 295 8 58 26 176 40 263 14 87 25 163 25 168 0 5 33 9 73 9 l73 0 22
-132z m372 -353 l0 -485 -60 0 -60 0 0 485 0 485 60 0 60 0 0 -485z m760 439
c51 -55 64 -119 57 -284 -5 -133 -17 -178 -59 -217 -33 -31 -71 -43 -139 -43
l-59 0 0 -190 0 -190 -60 0 -60 0 0 486 0 486 141 -4 140 -3 39 -41z m439
-222 c24 -147 57 -346 73 -442 16 -96 32 -194 35 -217 l6 -43 -56 0 c-58 0
-67 7 -67 55 0 13 -5 47 -11 75 l-11 50 -83 0 -83 0 -7 -62 c-12 -124 -9 -118
-75 -118 -50 0 -58 2 -55 18 2 9 9 51 15 92 6 41 29 194 51 340 22 146 47 310
55 365 24 170 14 155 97 155 l72 0 44 -268z m-1999 -242 l0 -40 -125 0 -125 0
0 40 0 40 125 0 125 0 0 -40z"/>
<path d="M2040 1484 c-1 -10 -5 -48 -10 -84 -5 -36 -16 -119 -24 -185 -9 -66
-19 -135 -22 -152 l-6 -33 71 0 71 0 -5 28 c-2 15 -9 56 -14 92 -6 36 -15 99
-21 140 -20 146 -29 202 -34 208 -3 3 -6 -3 -6 -14z"/>
<path d="M3070 1431 l0 -201 43 0 c69 0 86 25 94 141 7 115 -2 201 -26 230
-11 14 -32 23 -64 26 l-47 6 0 -202z"/>
<path d="M3562 1275 c-18 -126 -32 -233 -32 -237 0 -5 29 -8 65 -8 63 0 65 1
65 26 0 22 -36 272 -58 404 -6 39 -12 14 -40 -185z"/>
<path d="M4050 1240 l0 -390 45 0 c56 0 81 23 90 82 3 24 5 176 3 338 -3 322
-5 330 -62 350 -16 5 -40 10 -52 10 l-24 0 0 -390z"/>
</g>
</svg>
